<svg width="686" height="680" viewBox="0 0 686 680" fill="none" xmlns="http://www.w3.org/2000/svg">
<rect x="110" y="616" width="616" height="576" transform="rotate(-90 110 616)" fill="#C66AFF"/>
<rect x="109.998" y="615.995" width="288" height="288" transform="rotate(-90 109.998 615.995)" fill="white"/>
<path d="M109.998 328L397.998 328L109.998 616L109.998 328Z" fill="#FBFAF5"/>
<path d="M397.999 504L397.999 680L221.999 504L397.999 504Z" fill="#FFD600"/>
<path d="M397.999 504L397.999 328L221.999 504L397.999 504Z" fill="#FFD600"/>
<path d="M397.999 328L397.999 40L109.999 328L397.999 328Z" fill="#FBFAF5"/>
<circle cx="110" cy="320.996" r="79" fill="#00E794"/>
<path d="M685.999 340.995C685.999 302.804 670.828 266.177 643.822 239.172C616.817 212.167 580.19 196.995 541.999 196.995C503.808 196.995 467.181 212.167 440.176 239.172C413.17 266.177 397.999 302.804 397.999 340.995L685.999 340.995Z" fill="#F3F5F8"/>
<rect x="397.999" y="340.995" width="288" height="275" fill="#F3F5F8"/>
<circle cx="541.999" cy="340.995" r="88" transform="rotate(90 541.999 340.995)" fill="#D7DFE8"/>
<circle cx="541.999" cy="340.995" r="36" transform="rotate(90 541.999 340.995)" fill="#00E794"/>
<ellipse cx="16.6043" cy="447.912" rx="16.6043" ry="15.9125" fill="#FFD600"/>
<circle cx="398.007" cy="321.007" r="27.0075" fill="#FF6E40"/>
<path d="M686 472C686 510.191 670.829 546.818 643.823 573.823C616.818 600.828 580.191 616 542 616C503.809 616 467.182 600.828 440.177 573.823C413.171 546.818 398 510.191 398 472L686 472Z" fill="#FF6E40"/>
<circle cx="466.39" cy="602.61" r="35.3898" transform="rotate(-90 466.39 602.61)" fill="#C66AFF"/>
</svg>
