<svg width="819" height="577" viewBox="0 0 819 577" fill="none" xmlns="http://www.w3.org/2000/svg">
<rect x="238" width="194" height="290" fill="#C66AFF"/>
<path d="M271.376 205.562C256.66 202.434 222.392 187.006 216.864 176.402C211.336 165.798 216.864 158.627 216.864 158.627C224.251 162.079 232.459 164.873 241.488 167.009C250.517 169.146 258.971 170.214 266.851 170.214C275.059 170.214 281.215 169.557 285.319 168.242C289.587 166.763 291.722 163.558 291.722 158.627C291.722 155.176 290.49 152.464 288.028 150.491C285.73 148.519 282.036 146.711 276.947 145.067C272.022 143.424 265.538 141.369 257.494 138.904C246.823 135.452 238.369 131.672 232.131 127.563C225.893 123.454 221.378 118.441 218.588 112.524C215.961 106.607 214.648 99.3754 214.648 90.8287C214.648 75.2145 220.147 63.3806 231.146 55.327C242.309 47.109 258.807 43 280.641 43C289.341 43 298.288 43.7396 307.481 45.2189C321.122 47.3753 330.135 59.5436 330.135 73.3541V88.6098C322.42 85.487 315.032 83.2681 307.974 81.9533C300.915 80.6384 294.266 79.9809 288.028 79.9809C280.805 79.9809 274.649 80.5562 269.56 81.7067C264.471 82.8572 261.926 85.8157 261.926 90.5821C261.926 94.6911 264.06 97.7318 268.329 99.7041C272.761 101.512 280.559 103.895 291.722 106.854C304.69 110.305 314.54 114.496 321.271 119.427C328.165 124.358 332.844 130.111 335.306 136.685C337.769 143.095 339 150.409 339 158.627C339 173.091 333.419 184.76 322.256 193.636C311.093 202.347 286.092 208.691 271.376 205.562Z" fill="#FFD600"/>
<path d="M268.882 269C258.211 269 248.115 268.178 238.594 266.535C223.293 263.629 214.216 249.174 214.216 233.6V220.925C221.603 224.376 229.812 227.17 238.84 229.307C247.869 231.444 256.324 232.512 264.203 232.512C272.411 232.512 278.567 231.855 282.671 230.54C286.94 229.061 289.074 225.856 289.074 220.925C289.074 217.473 287.843 214.761 285.38 212.789C283.082 210.817 279.388 209.009 274.299 207.365C269.374 205.722 262.89 203.667 254.846 201.202C244.176 197.75 235.721 193.97 229.483 189.861C223.245 185.752 218.731 180.739 215.94 174.822C213.313 168.905 212 161.673 212 153.126C212 137.512 217.499 125.678 228.498 117.625C239.661 109.407 256.159 105.298 277.993 105.298C280.836 105.298 266.081 101.604 286.601 105.535C307.121 109.465 323.669 119.406 327.487 124.708C331.306 130.01 327.487 150.908 327.487 150.908C319.772 147.785 312.385 145.566 305.326 144.251C298.267 142.936 291.618 142.279 285.38 142.279C278.157 142.279 272.001 142.854 266.912 144.004C261.823 145.155 259.278 148.113 259.278 152.88C259.278 156.989 261.413 160.029 265.681 162.002C270.113 163.81 277.911 166.193 289.074 169.151C302.042 172.603 311.892 176.794 318.623 181.725C325.518 186.656 330.196 192.408 332.659 198.983C335.121 205.393 336.352 212.707 336.352 220.925C336.352 235.388 330.771 247.058 319.608 255.933C308.445 264.644 291.536 269 268.882 269Z" fill="#FFD600"/>
<rect x="148" y="431" width="143" height="285" transform="rotate(-90 148 431)" fill="#FF6E40"/>
<rect x="432" y="288" width="288" height="387" transform="rotate(-90 432 288)" fill="#FBFAF5"/>
<path d="M432 288L432 -1.36898e-05L144 288L432 288Z" fill="#00E794"/>
<rect x="238" y="577" width="145" height="194" transform="rotate(-90 238 577)" fill="#C66AFF"/>
<path d="M433.288 288C394.755 288 357.801 303.161 330.554 330.149C303.307 357.136 288 393.738 288 431.904C288 470.07 303.307 506.672 330.554 533.66C357.801 560.647 394.755 575.808 433.288 575.808L433.288 288Z" fill="#F3F5F8"/>
<path fill-rule="evenodd" clip-rule="evenodd" d="M316.135 116.227L284.296 148.066C285.79 148.848 287.029 149.661 288.012 150.504C290.471 152.472 291.7 155.177 291.7 158.621C291.7 163.48 289.622 166.659 285.464 168.159C278.505 166.269 273.051 164.637 269.1 163.261L237.902 194.46C242.742 196.794 248.399 199.007 254.873 201.099C262.906 203.559 269.382 205.609 274.301 207.249C279.383 208.888 283.072 210.692 285.367 212.66C287.826 214.628 289.056 217.334 289.056 220.777C289.056 225.697 286.925 228.895 282.662 230.371C278.563 231.683 272.415 232.339 264.218 232.339C256.348 232.339 247.905 231.273 238.887 229.141C229.87 227.009 221.673 224.221 214.295 220.777V233.401C214.295 248.953 223.362 263.385 238.641 266.284C248.151 267.924 258.234 268.744 268.89 268.744C291.515 268.744 308.402 264.398 319.551 255.707C330.699 246.851 336.274 235.208 336.274 220.777C336.274 212.578 335.044 205.281 332.585 198.885C331.301 195.462 329.415 192.262 326.926 189.285C334.921 181.063 338.918 170.842 338.918 158.621C338.918 150.422 337.688 143.124 335.229 136.729C333.593 132.364 330.977 128.363 327.381 124.724C325.716 122.453 321.74 119.345 316.135 116.227Z" fill="#FBFAF5"/>
<rect x="433" y="576" width="288" height="386" transform="rotate(-90 433 576)" fill="#F3F5F8"/>
<circle cx="433.238" cy="432" r="89" fill="#D7DFE8"/>
<circle cx="432.4" cy="431.162" r="37" fill="#00E794"/>
<circle cx="576" cy="144" r="105" fill="#00E794"/>
<ellipse cx="164.604" cy="111.912" rx="16.6043" ry="15.9125" fill="#C66AFF"/>
<circle cx="434.007" cy="71.0075" r="27.0075" fill="#FFD600"/>
<path d="M287.808 431.87C287.808 393.979 272.647 357.639 245.66 330.846C218.672 304.052 182.07 289 143.904 289C105.738 289 69.1358 304.052 42.1485 330.846C15.1613 357.639 5.7676e-06 393.979 0 431.87L287.808 431.87Z" fill="#FFD600"/>
<circle cx="43.2541" cy="322.39" r="35.3898" fill="#FF6E40"/>
<circle cx="234.904" cy="502.904" r="24.904" fill="#D7DFE8"/>
</svg>
