<svg width="24" height="18" viewBox="0 0 24 18" fill="none" xmlns="http://www.w3.org/2000/svg">
<path d="M23.8466 2.07058C22.9533 2.42608 22.0069 2.66069 21.0379 2.76682C22.0637 2.21674 22.8312 1.34676 23.1957 0.320919C22.2366 0.835973 21.1866 1.19841 20.0916 1.39241C19.4206 0.747507 18.5505 0.299484 17.5941 0.106412C16.6377 -0.0866598 15.6392 -0.0158777 14.7279 0.309584C13.8166 0.635046 13.0346 1.20018 12.4832 1.93174C11.9318 2.6633 11.6364 3.52756 11.6354 4.41249C11.6361 4.75169 11.678 5.08979 11.7606 5.42069C9.81624 5.33621 7.91319 4.88411 6.17453 4.09364C4.43587 3.30316 2.90032 2.19193 1.66721 0.831801C1.04592 1.80091 0.855428 2.94694 1.13427 4.03806C1.41311 5.12918 2.14046 6.08393 3.1692 6.7092C2.39187 6.68701 1.63157 6.49793 0.95126 6.15763V6.2164C0.952124 7.23584 1.34346 8.22363 2.05888 9.01223C2.77431 9.80083 3.76978 10.3417 4.87646 10.5431C4.15614 10.7176 3.4016 10.7439 2.66853 10.6199C2.97992 11.4974 3.58769 12.2648 4.40657 12.8146C5.22545 13.3643 6.21437 13.6688 7.23458 13.6852C5.50239 14.9084 3.36545 15.5707 1.16655 15.566C0.776658 15.5656 0.387136 15.5444 0 15.5027C2.23866 16.8051 4.84695 17.4944 7.50995 17.4874C16.5219 17.4874 21.4234 10.7601 21.4234 4.9279C21.4234 4.73349 21.4234 4.5436 21.4234 4.35372C22.3746 3.72842 23.1951 2.95533 23.8466 2.07058Z" fill="#070C1C"/>
</svg>
