<svg width="22" height="22" viewBox="0 0 22 22" fill="none" xmlns="http://www.w3.org/2000/svg">
<path d="M0.0661316 6.46478C0.119675 5.29388 0.305649 4.49426 0.57756 3.79468C0.853668 3.06068 1.28671 2.39584 1.84631 1.84631C2.39568 1.28671 3.06068 0.8535 3.79468 0.577225C4.49443 0.305481 5.29388 0.119675 6.46478 0.0664673C7.63786 0.0127563 8.01266 0 11 0C13.9873 0 14.3621 0.0127563 15.5352 0.0661316C16.7061 0.119675 17.5056 0.305649 18.2053 0.57756C18.9393 0.853668 19.6042 1.28671 20.1537 1.84631C20.7133 2.39568 21.1465 3.06052 21.4228 3.79451C21.6945 4.49426 21.8803 5.29388 21.9335 6.46462C21.9872 7.63786 22 8.0125 22 10.9998C22 13.9873 21.9872 14.3621 21.9335 15.5352C21.8802 16.7059 21.6942 17.5056 21.4223 18.2053C21.1462 18.9391 20.7131 19.6042 20.1535 20.1535C19.6042 20.7131 18.9391 21.1462 18.2052 21.4223C17.5056 21.6944 16.7059 21.8802 15.535 21.9337C14.3618 21.9872 13.9872 21.9998 10.9998 21.9998C8.0125 21.9998 7.6377 21.9872 6.46461 21.9337C5.29372 21.8802 4.49426 21.6944 3.79451 21.4223C2.31696 20.8509 1.14891 19.6829 0.57756 18.2053C0.305481 17.5056 0.119675 16.7059 0.0661316 15.5352C0.0127563 14.362 0 13.9873 0 11C0 8.0125 0.0127563 7.63786 0.0661316 6.46478ZM2.04622 15.4451C2.09506 16.5176 2.27432 17.1001 2.42488 17.4876C2.79498 18.447 3.55315 19.2052 4.51256 19.5753C4.90012 19.7258 5.48254 19.9051 6.55508 19.954C7.71474 20.007 8.06268 20.0181 11 20.0181C13.9375 20.0181 14.2853 20.007 15.4451 19.954C16.5175 19.9051 17.0999 19.7258 17.4876 19.5753C17.9653 19.3989 18.3975 19.1177 18.7523 18.7523C19.1177 18.3975 19.3989 17.9655 19.5753 17.4876C19.7258 17.1001 19.9051 16.5176 19.9539 15.4451C20.0068 14.2853 20.0181 13.9373 20.0181 11.0002C20.0181 8.06285 20.0068 7.71507 19.9539 6.55508C19.9049 5.48254 19.7258 4.90012 19.5753 4.51256C19.3989 4.0347 19.1176 3.60249 18.7523 3.24767C18.3975 2.88226 17.9653 2.60112 17.4874 2.42488C17.0999 2.27415 16.5175 2.09506 15.4449 2.04605C14.2851 1.99318 13.9371 1.98193 11 1.98193H11.0002C8.06302 1.98193 7.71507 1.99318 6.55508 2.04622C5.48254 2.09506 4.90028 2.27432 4.51256 2.42488C4.03487 2.60129 3.60266 2.88243 3.24783 3.24767C2.88243 3.60249 2.60129 4.0347 2.42505 4.51256C2.27432 4.90012 2.09506 5.48254 2.04622 6.55508C1.99335 7.71491 1.9821 8.06285 1.9821 11C1.9821 13.9373 1.99318 14.2851 2.04622 15.4451Z" fill="#070C1C"/>
<path d="M10.9999 5.35156C14.1195 5.35156 16.6484 7.88068 16.6484 11.0003C16.6484 14.1199 14.1195 16.6488 10.9999 16.6488C7.88013 16.6488 5.35118 14.1199 5.35118 11.0003C5.35118 7.88068 7.88013 5.35156 10.9999 5.35156ZM10.9999 14.6669C13.0248 14.6667 14.6665 13.0252 14.6663 11.0001C14.6663 8.9752 13.0248 7.3335 10.9997 7.3335C8.97465 7.33366 7.33311 8.9752 7.33311 11.0001C7.33311 13.0252 8.97482 14.6669 10.9999 14.6669Z" fill="#070C1C"/>
<path d="M3.80916 5.12871C3.80916 5.85767 4.40015 6.44865 5.1291 6.44865C5.85823 6.44865 6.44922 5.85767 6.44922 5.12871C6.44922 4.39958 5.85823 3.80859 5.1291 3.80859C4.40015 3.80859 3.80916 4.39958 3.80916 5.12871Z" fill="#070C1C"/>
</svg>
